<?xml version="1.0" encoding="UTF-8"?>
<svg width="104px" height="76px" viewBox="0 0 104 76" version="1.1" xmlns="http://www.w3.org/2000/svg" xmlns:xlink="http://www.w3.org/1999/xlink">
    <!-- Generator: Sketch 61.2 (89653) - https://sketch.com -->
    <title>he</title>
    <desc>Created with Sketch.</desc>
    <g id="logo" stroke="none" stroke-width="1" fill="none" fill-rule="evenodd">
        <g transform="translate(-26.000000, -36.000000)" fill="#000000" fill-rule="nonzero" id="he">
            <path d="M66,112 C74.16,112 85.76,98.88 85.76,90.4 C85.76,88.72 85.12,87.2 82.96,87.2 C81.12,87.2 80.24,88.8 80.24,90.96 C80.24,92.56 78,99.68 71.92,99.68 C69.68,99.68 68.24,96.8 68.48,92.96 C68.48,84.08 71.52,81.12 71.52,76.4 C71.52,70.64 59.12,67.12 54.64,72.24 C52.48,74.72 48.32,80.96 44.16,90.48 C42.48,94.72 38.96,96.72 39.2,92.96 C40.08,86.48 44.8,47.68 45.76,45.84 C46.32,44.88 46.64,43.92 46.64,42.96 C46.64,36.48 32.48,32.88 30.88,39.68 C29.28,45.04 25.04,84.56 26.64,99.92 C27.28,107.76 29.68,112 38,112 C46.72,112 51.28,94.96 53.6,83.76 C53.6,86.24 53.44,89.2 53.44,92.16 C53.44,101.68 54.8,112 66,112 Z M102.24,112 C120.8,112 129.44,96.48 129.44,90.4 C129.44,88.72 128.72,87.2 126.56,87.2 C124.72,87.2 123.84,88.8 123.84,90.96 C123.84,92.56 119.84,100.56 110.16,100.56 C106.24,100.56 101.52,98.72 98.64,95.6 C106.64,94.72 115.2,91.28 116.64,83.28 C117.92,76.56 111.44,68.96 100.56,68.96 C88.4,68.96 78.88,80.24 78.88,92 C78.88,103.44 89.04,112 102.24,112 Z M96.4,92.24 C95.44,90.32 95.04,88.32 95.04,86.16 C95.04,79.92 98.8,74.24 103.04,74.88 C104.56,75.12 105.2,76.4 105.2,78.24 C105.2,83.04 100.88,90.96 96.4,92.24 Z"></path>
        </g>
    </g>
</svg>