<?xml version="1.0" encoding="UTF-8"?>
<svg width="36px" height="11px" viewBox="0 0 36 11" version="1.1" xmlns="http://www.w3.org/2000/svg" xmlns:xlink="http://www.w3.org/1999/xlink">
    <!-- Generator: Sketch 55.2 (78181) - https://sketchapp.com -->
    <title>Zhan_ghe</title>
    <desc>Created with Sketch.</desc>
    <g id="页面1" stroke="none" stroke-width="1" fill="none" fill-rule="evenodd">
        <path d="M6.81831682,5.54287477 C6.93222896,5.60183829 6.96018629,5.72291914 7.014,5.844 C7.014,5.914 6.958,5.942 6.93,5.998 C6.902,6.04 6.86,6.068 6.832,6.11 C6.524,6.418 6.034,7.006 5.726,7.314 C5.614,7.426 5.488,7.51 5.334,7.594 C5.054,7.734 4.746,7.874 4.438,7.958 C3.08,8 1.554,7.958 0.28,7.776 C0.07,7.622 0.308,7.202 0.336,7.09 C0.42,6.894 0.518,6.698 0.658,6.53 C0.784,6.362 0.896,6.208 1.022,6.04 C1.162,5.858 1.316,5.676 1.456,5.494 C1.694,5.13 1.96,4.78 2.24,4.458 C2.464,4.206 2.674,3.94 2.856,3.66 C3.094,3.338 3.36,3.058 3.612,2.764 C3.85,2.484 4.102,2.204 4.34,1.924 C4.34,1.91 4.34,1.896 4.354,1.868 C4.284,1.854 4.228,1.826 4.158,1.812 C3.766,1.784 3.374,1.728 2.982,1.756 C2.296,1.812 1.652,2.008 1.092,2.414 C0.91,2.554 0.728,2.708 0.644,2.946 C0.658,3.002 0.672,3.044 0.686,3.086 C0.672,3.1 0.658,3.114 0.644,3.1 C0.532,3.016 0.406,2.932 0.294,2.834 C0.252,2.792 0.238,2.75 0.21,2.708 C0.252,2.442 0.364,2.232 0.546,2.036 C0.98,1.574 1.512,1.252 2.128,1.056 C2.408,0.958 2.702,0.916 3.01,0.902 C3.346,0.888 3.682,0.874 4.018,0.846 C4.326,0.832 4.592,0.72 4.83,0.524 C4.928,0.454 5.012,0.384 5.096,0.314 C5.124,0.314 5.824,1.238 5.894,1.336 C5.838,1.448 5.782,1.546 5.684,1.616 C5.572,1.686 5.474,1.784 5.404,1.896 C5.194,2.232 4.97,2.554 4.746,2.876 C4.522,3.212 4.298,3.534 4.074,3.87 C3.92,4.108 3.752,4.346 3.598,4.584 C3.43,4.864 3.262,5.144 3.066,5.41 C2.912,5.62 2.786,5.83 2.646,6.054 C2.492,6.32 2.324,6.586 2.17,6.852 C2.142,6.88 2.114,6.908 2.142,6.978 L2.282,6.978 C2.632,7.3 4.816,7.16 5.068,6.838 C5.166,6.768 5.25,6.698 5.334,6.628 C5.642,6.334 6.132,5.774 6.482,5.522 C6.552,5.466 6.636,5.41 6.72,5.354 C6.82807764,5.44856793 6.77971631,5.43884323 6.82651653,5.5386863 C6.84559434,5.58347005 6.8162184,5.53349361 6.80036702,5.5107213 L6.81831682,5.54287477 Z M9.24,7.566 C9.142,7.384 9.114,7.188 9.1,6.992 C9.072,6.586 9.142,6.18 9.226,5.788 C9.296,5.466 9.366,5.13 9.422,4.794 C9.436,4.724 9.506,4.654 9.45,4.556 C9.38,4.584 9.366,4.654 9.324,4.71 C9.198,4.976 9.072,5.242 8.932,5.508 C8.652,6.04 8.358,6.586 8.078,7.118 C7.924,7.426 7.756,7.734 7.602,8.056 C7.56,8.14 7.532,8.238 7.462,8.294 C7.434,8.294 7.42,8.308 7.406,8.294 C7.238,8.224 7.084,8.154 6.916,8.07 C6.818,8.014 6.748,7.944 6.734,7.818 C6.692,7.636 6.65,7.44 6.608,7.244 C6.566,6.992 6.58,6.754 6.594,6.502 C6.594,6.418 6.608,6.32 6.622,6.236 L6.706,5.438 C6.636,4.99 6.888,2.638 6.944,2.414 C7.112,1.798 7.266,1.168 7.406,0.538 C7.42,0.496 7.434,0.44 7.49,0.398 C7.518,0.412 7.56,0.412 7.588,0.426 C7.7,0.482 8.148,0.552 8.26,0.622 C8.316,0.748 8.288,0.902 8.274,1.042 C8.26,1.238 8.218,1.42 8.19,1.616 C8.162,1.854 8.148,2.078 8.12,2.316 C8.106,2.47 8.092,2.61 8.064,2.764 C8.036,3.002 8.008,3.226 7.98,3.45 C7.98,3.506 7.98,3.548 7.966,3.59 C7.952,3.968 7.938,4.346 7.924,4.71 C7.91,4.892 7.91,5.074 7.882,5.256 C7.854,5.41 7.868,5.592 7.854,5.76 L7.854,5.914 C7.924,5.928 7.938,5.872 7.952,5.844 C8.092,5.592 8.218,5.326 8.344,5.074 C8.582,4.626 8.834,4.178 9.142,3.772 C9.31,3.52 9.492,3.282 9.688,3.03 C9.744,2.96 9.8,2.876 9.898,2.82 C10.08,2.918 10.514,3.058 10.696,3.156 C10.71,3.17 10.724,3.198 10.752,3.226 C10.766,3.366 10.752,3.52 10.738,3.674 C10.71,3.912 10.668,4.15 10.626,4.388 C10.584,4.626 10.542,4.864 10.528,5.102 C10.5,5.354 10.472,5.62 10.444,5.872 C10.43,5.942 10.43,6.012 10.43,6.082 C10.416,6.236 10.416,6.39 10.388,6.544 C10.36,6.684 10.36,6.824 10.402,6.964 C10.416,7.034 10.416,7.104 10.416,7.174 C10.444,7.342 10.458,7.398 10.486,7.58 C10.654,7.566 10.542,7.58 10.64,7.454 C10.85,7.188 11.088,6.95 11.312,6.684 C11.606,6.32 11.9,5.788 12.11,5.368 C12.152,5.326 12.194,5.326 12.236,5.354 C12.278,5.368 12.32,5.396 12.348,5.424 C12.446,5.48 12.53,5.55 12.628,5.578 C12.67,5.578 12.698,5.62 12.726,5.648 C12.726,5.676 12.74,5.704 12.726,5.718 C12.53,6.082 12.25,6.572 11.998,6.908 C11.872,7.076 11.704,7.244 11.564,7.412 C11.48,7.51 11.396,7.608 11.326,7.706 C11.2,7.888 11.018,8.028 10.822,8.14 C10.696,8.21 10.57,8.21 10.43,8.168 C10.402,8.154 10.36,8.14 10.332,8.126 C10.01,7.958 9.674,7.79 9.352,7.636 C9.324,7.608 9.296,7.594 9.24,7.566 Z M14.56,7.09 C14.504,7.104 14.49,7.146 14.462,7.188 L14.21,7.692 C14.112,7.846 14.014,7.986 13.846,8.098 C13.79,8.084 13.734,8.084 13.678,8.07 C13.272,7.916 12.866,7.762 12.46,7.622 C12.222,7.538 12.11,7.37 12.054,7.132 C12.012,6.978 11.998,6.824 11.984,6.656 C11.956,6.012 12.054,5.396 12.236,4.78 C12.32,4.486 12.474,4.22 12.628,3.954 C12.698,3.828 12.782,3.688 12.866,3.576 C13.062,3.296 13.3,3.1 13.622,3.002 C13.692,2.974 13.762,2.96 13.832,2.932 C14.238,3.002 14.588,3.212 14.966,3.366 C15.078,3.198 15.008,2.96 15.19,2.834 C15.4,2.862 15.568,2.988 15.764,3.044 C15.806,3.058 15.834,3.1 15.862,3.128 C15.876,3.198 15.876,3.268 15.876,3.352 C15.876,3.646 15.876,3.954 15.848,4.262 C15.82,4.626 15.82,4.99 15.806,5.354 C15.806,5.998 15.806,6.642 15.82,7.3 C15.82,7.37 15.792,7.454 15.862,7.524 C15.946,7.524 15.974,7.468 16.016,7.426 C16.114,7.328 16.212,7.244 16.282,7.132 C16.366,7.034 16.422,6.922 16.492,6.81 L16.87,6.138 C16.968,5.984 17.122,5.662 17.136,5.48 C17.136,5.424 17.178,5.382 17.234,5.354 C17.402,5.382 17.542,5.522 17.724,5.536 C17.752,5.592 17.766,5.634 17.78,5.662 C17.71,5.76 17.654,5.83 17.612,5.914 C17.556,5.998 17.542,6.096 17.5,6.18 C17.304,6.558 17.038,7.09 16.842,7.468 C16.786,7.594 16.73,7.734 16.66,7.86 C16.618,7.944 16.562,8.042 16.492,8.126 C16.366,8.294 16.254,8.336 16.044,8.266 C15.806,8.182 15.554,8.084 15.316,8 C15.218,7.958 15.12,7.916 15.022,7.888 C14.882,7.846 14.784,7.748 14.728,7.622 C14.644,7.496 14.616,7.342 14.574,7.202 C14.574,7.16 14.56,7.132 14.56,7.09 Z M14.504,3.436 C14.322,3.52 14.154,3.618 14.042,3.8 C13.986,3.912 13.916,4.01 13.86,4.136 C13.622,4.64 13.482,5.186 13.454,5.76 C13.44,6.082 13.454,6.404 13.454,6.726 C13.454,6.768 13.468,6.796 13.538,6.782 C13.622,6.628 13.734,6.46 13.832,6.278 C13.986,5.97 14.154,5.662 14.294,5.354 C14.406,5.074 14.518,4.808 14.658,4.542 C14.7,4.444 14.728,4.346 14.784,4.234 C14.742,4.206 14.7,4.178 14.658,4.164 C14.7,3.884 14.7,3.646 14.504,3.436 Z M19.51425,4.93225 C19.5125,4.948 19.509,4.962 19.502,4.976 C19.446,4.976 19.446,5.032 19.432,5.074 C19.082,5.718 18.816,6.404 18.592,7.09 C18.48,7.44 18.312,7.776 18.172,8.112 C18.158,8.14 18.13,8.168 18.102,8.21 C18.06,8.196 18.018,8.196 17.976,8.182 C17.92,8.154 17.878,8.126 17.836,8.112 C17.57,8.014 17.416,7.818 17.346,7.552 C17.29,7.342 17.22,7.132 17.15,6.936 C17.108,6.81 17.094,6.698 17.094,6.558 C17.094,6.138 17.136,5.704 17.178,5.284 C17.262,4.696 17.402,4.122 17.528,3.548 C17.57,3.436 17.598,3.31 17.626,3.184 C17.64,3.128 17.668,3.058 17.682,3.002 C17.752,2.96 17.808,2.974 17.85,3.002 C18.004,3.1 18.144,3.184 18.284,3.282 C18.326,3.324 18.368,3.38 18.41,3.422 C18.424,3.59 18.424,3.744 18.41,3.912 C18.396,4.038 18.382,4.178 18.382,4.304 C18.354,4.64 18.312,4.976 18.326,5.326 L18.326,5.802 C18.34,5.914 18.354,6.012 18.368,6.124 C18.438,6.124 18.438,6.068 18.452,6.04 C18.578,5.802 18.676,5.55 18.802,5.312 C18.914,5.074 19.026,4.85 19.152,4.612 C19.236,4.43 19.348,4.262 19.446,4.08 C19.53,3.912 19.6,3.758 19.684,3.604 C19.782,3.436 19.866,3.268 19.964,3.1 C19.978,3.072 20.02,3.044 20.048,3.002 C20.188,3.03 20.272,3.156 20.384,3.212 C20.496,3.282 20.594,3.352 20.692,3.408 C20.762,3.52 20.79,3.632 20.79,3.758 C20.79,4.01 20.804,4.262 20.776,4.5 C20.762,4.724 20.748,4.948 20.72,5.172 C20.692,5.382 20.692,5.578 20.692,5.788 C20.678,6.012 20.678,6.236 20.65,6.46 C20.636,6.67 20.636,6.88 20.65,7.104 C20.65,7.16 20.678,7.216 20.692,7.286 C20.79,7.258 20.846,7.202 20.888,7.132 C21.084,6.922 21.336,6.586 21.49,6.334 C21.518,6.278 21.56,6.208 21.602,6.152 C21.77,5.9 21.924,5.648 22.036,5.354 C22.134,5.354 22.19,5.41 22.246,5.466 C22.344,5.564 22.456,5.634 22.582,5.69 C22.596,5.732 22.596,5.76 22.61,5.788 C22.47,6.054 22.344,6.32 22.218,6.586 C22.134,6.74 21.966,7.006 21.868,7.174 C21.714,7.468 21.504,7.734 21.238,7.958 C21.112,8.07 21,8.196 20.888,8.294 C20.804,8.336 20.748,8.322 20.692,8.28 C20.328,8.042 19.978,7.804 19.628,7.552 C19.39,7.384 19.25,7.146 19.25,6.852 C19.236,6.712 19.236,6.586 19.264,6.446 C19.278,6.432 19.278,6.418 19.278,6.404 C19.292,5.97 19.404,5.564 19.488,5.158 C19.502,5.102 19.502,5.032 19.502,4.976 C19.523,4.969 19.5335,4.9585 19.53525,4.94275 L19.51425,4.93225 Z M34.916,10.352 C34.622,10.562 34.314,10.786 34.048,10.996 C33.992,11.024 33.95,11.038 33.88,10.982 C33.88,10.73 33.88,10.478 33.81,10.198 C33.782,10.142 33.712,10.142 33.614,10.114 C33.348,10.1 33.096,10.1 32.83,10.086 C32.368,10.044 31.906,10.016 31.43,9.974 C31.262,9.974 31.108,9.946 30.94,9.946 C30.8,9.918 30.646,9.918 30.492,9.904 C30.338,9.89 30.17,9.89 30.002,9.89 C29.68,9.89 29.358,9.89 29.022,9.862 C28.042,9.806 27.048,9.778 26.054,9.722 C25.494,9.75 24.934,9.68 24.36,9.694 C23.94,9.694 23.534,9.666 23.114,9.68 C22.806,9.694 22.484,9.68 22.176,9.694 C21.966,9.708 21.77,9.68 21.574,9.708 C21.266,9.736 20.944,9.694 20.636,9.75 L20.58,9.75 C20.286,9.75 19.992,9.764 19.698,9.778 C19.46,9.778 19.208,9.806 18.984,9.82 L18.9,9.82 C18.648,9.834 18.396,9.834 18.144,9.848 C17.92,9.862 17.71,9.89 17.486,9.918 C17.458,9.932 17.444,9.932 17.416,9.918 C17.192,9.946 16.954,9.946 16.73,9.96 C16.534,9.974 16.352,10.002 16.156,10.016 C15.96,10.03 15.778,10.016 15.61,10.044 C15.274,10.086 14.924,10.086 14.602,10.114 C14.224,10.156 13.832,10.17 13.468,10.226 C13.076,10.268 12.726,10.31 12.348,10.366 C12.096,10.408 11.83,10.422 11.564,10.45 C11.312,10.492 11.06,10.534 10.808,10.562 C10.626,10.59 10.43,10.59 10.234,10.604 C10.164,10.618 10.08,10.618 9.996,10.618 C9.926,10.604 9.828,10.59 9.73,10.562 C9.674,10.408 9.562,10.282 9.548,10.128 C9.59,10.044 9.66,10.03 9.716,10.002 C9.94,9.946 10.136,9.862 10.374,9.89 L10.5,10.016 C10.64,10.016 10.78,9.988 10.934,9.974 C11.62,9.834 12.292,9.722 12.992,9.596 C13.328,9.554 13.664,9.526 14.014,9.47 C14.28,9.442 14.532,9.386 14.812,9.358 C15.078,9.33 15.358,9.302 15.638,9.274 C15.932,9.246 16.254,9.204 16.562,9.176 C16.73,9.162 16.926,9.162 17.108,9.134 C17.29,9.12 17.486,9.106 17.682,9.078 C17.822,9.064 17.962,9.05 18.116,9.05 C18.298,9.036 18.494,9.008 18.69,9.008 C18.914,8.994 19.152,8.966 19.376,8.938 C19.404,8.938 19.446,8.924 19.474,8.924 C19.768,8.924 20.048,8.896 20.342,8.868 C20.58,8.854 20.818,8.854 21.056,8.84 C21.35,8.812 21.658,8.84 21.966,8.798 C21.966,8.798 21.98,8.798 21.994,8.784 C22.26,8.784 22.526,8.77 22.806,8.77 C23.184,8.77 23.576,8.742 23.968,8.756 C24.262,8.728 24.528,8.77 24.822,8.742 C25.158,8.728 25.48,8.77 25.83,8.756 C26.25,8.742 26.684,8.77 27.104,8.77 C27.51,8.742 27.902,8.784 28.308,8.77 C28.686,8.742 29.078,8.798 29.442,8.77 C29.876,8.756 30.31,8.798 30.744,8.784 C31.178,8.756 31.612,8.812 32.032,8.798 C32.48,8.77 32.942,8.826 33.39,8.812 C33.824,8.784 34.258,8.84 34.692,8.826 C34.734,8.826 34.79,8.84 34.846,8.84 C34.888,8.938 34.888,9.064 34.902,9.162 C34.902,9.274 34.888,9.386 34.874,9.498 C34.874,9.61 34.93,9.708 34.846,9.806 C34.874,9.89 34.902,9.96 34.93,10.016 C34.93,10.128 34.916,10.226 34.916,10.352 Z M23.156,8.098 C22.918,7.986 22.68,7.888 22.442,7.79 C22.288,7.72 22.19,7.608 22.134,7.468 C22.092,7.356 22.078,7.244 22.05,7.132 C21.994,6.88 21.952,6.642 21.952,6.39 C21.952,6.362 21.966,6.334 21.952,6.306 C21.868,5.9 21.98,5.522 22.106,5.158 C22.218,4.836 22.358,4.528 22.498,4.22 C22.596,3.996 22.736,3.8 22.904,3.618 L23.282,3.24 C23.394,3.128 23.52,3.044 23.674,3.002 C23.8,3.016 23.912,3.072 24.024,3.128 C24.066,3.156 24.108,3.184 24.164,3.198 C24.374,3.296 24.584,3.394 24.682,3.632 C24.766,3.576 24.794,3.506 24.808,3.436 C24.85,3.282 24.892,3.128 24.92,2.974 C24.934,2.904 24.962,2.834 25.046,2.792 C25.074,2.792 25.102,2.806 25.13,2.82 C25.312,2.918 25.48,3.002 25.648,3.1 C25.662,3.156 25.662,3.212 25.662,3.268 C25.62,3.576 25.55,3.884 25.522,4.192 C25.494,4.5 25.438,4.808 25.452,5.13 C25.466,5.382 25.438,5.62 25.424,5.872 C25.382,6.166 25.396,6.446 25.396,6.74 C25.396,7.062 25.396,7.384 25.41,7.706 C25.41,8 25.382,8.294 25.34,8.588 C25.326,8.686 25.312,8.798 25.284,8.896 C25.2,9.288 25.088,9.666 24.864,9.988 C24.752,10.142 24.626,10.254 24.458,10.338 C24.304,10.394 24.164,10.464 23.982,10.562 C23.87,10.59 23.716,10.534 23.576,10.492 C23.338,10.436 23.1,10.352 22.862,10.282 C22.68,10.226 22.568,10.114 22.512,9.932 C22.498,9.89 22.512,9.848 22.512,9.806 C22.54,9.764 22.582,9.75 22.638,9.764 C22.68,9.778 22.736,9.792 22.778,9.82 C22.848,9.834 22.904,9.862 22.96,9.89 C23.002,9.904 23.044,9.946 23.1,9.946 C23.156,9.932 23.226,9.96 23.296,9.974 C23.632,9.806 23.828,9.512 23.912,9.148 C23.954,8.938 24.01,8.728 23.996,8.518 C23.996,8.42 23.982,8.336 23.982,8.252 C23.968,8.14 23.954,8.028 23.968,7.93 C23.982,7.72 24.024,7.524 24.052,7.314 C24.052,7.3 24.038,7.286 24.038,7.258 C23.996,7.244 23.982,7.286 23.968,7.314 C23.87,7.468 23.772,7.608 23.688,7.762 C23.562,7.972 23.394,8.07 23.156,8.098 Z M24.192,3.478 C24.108,3.548 24.052,3.618 23.996,3.688 C23.94,3.772 23.884,3.856 23.814,3.954 C23.632,4.206 23.478,4.5 23.408,4.808 C23.394,4.906 23.366,4.99 23.338,5.074 C23.268,5.354 23.184,5.62 23.114,5.9 C23.072,6.068 23.03,6.25 23.03,6.432 C23.044,6.656 23.03,6.894 23.044,7.118 C23.044,7.146 23.03,7.188 23.086,7.202 C23.17,7.104 23.24,6.978 23.31,6.852 C23.492,6.46 23.702,6.096 23.856,5.69 C23.87,5.648 23.884,5.606 23.912,5.564 C24.08,5.298 24.164,5.004 24.29,4.71 C24.374,4.514 24.388,4.304 24.388,4.08 C24.388,3.87 24.304,3.674 24.192,3.478 Z M28.588,7.566 C28.49,7.384 28.462,7.188 28.448,6.992 C28.42,6.586 28.49,6.18 28.574,5.788 C28.644,5.466 28.714,5.13 28.77,4.794 C28.784,4.724 28.854,4.654 28.798,4.556 C28.728,4.584 28.714,4.654 28.672,4.71 C28.546,4.976 28.42,5.242 28.28,5.508 C28,6.04 27.706,6.586 27.426,7.118 C27.272,7.426 27.104,7.734 26.95,8.056 C26.908,8.14 26.88,8.238 26.81,8.294 C26.782,8.294 26.768,8.308 26.754,8.294 C26.586,8.224 26.432,8.154 26.264,8.07 C26.166,8.014 26.096,7.944 26.082,7.818 C26.04,7.636 25.998,7.44 25.956,7.244 C25.914,6.992 25.928,6.754 25.942,6.502 C25.942,6.418 25.956,6.32 25.97,6.236 L26.054,5.438 C25.984,4.99 26.236,2.638 26.292,2.414 C26.46,1.798 26.614,1.168 26.754,0.538 C26.768,0.496 26.782,0.44 26.838,0.398 C26.866,0.412 26.908,0.412 26.936,0.426 C27.048,0.482 27.496,0.552 27.608,0.622 C27.664,0.748 27.636,0.902 27.622,1.042 C27.608,1.238 27.566,1.42 27.538,1.616 C27.51,1.854 27.496,2.078 27.468,2.316 C27.454,2.47 27.44,2.61 27.412,2.764 C27.384,3.002 27.356,3.226 27.328,3.45 C27.328,3.506 27.328,3.548 27.314,3.59 C27.3,3.968 27.286,4.346 27.272,4.71 C27.258,4.892 27.258,5.074 27.23,5.256 C27.202,5.41 27.216,5.592 27.202,5.76 L27.202,5.914 C27.272,5.928 27.286,5.872 27.3,5.844 C27.44,5.592 27.566,5.326 27.692,5.074 C27.93,4.626 28.182,4.178 28.49,3.772 C28.658,3.52 28.84,3.282 29.036,3.03 C29.092,2.96 29.148,2.876 29.246,2.82 C29.428,2.918 29.862,3.058 30.044,3.156 C30.058,3.17 30.072,3.198 30.1,3.226 C30.114,3.366 30.1,3.52 30.086,3.674 C30.058,3.912 30.016,4.15 29.974,4.388 C29.932,4.626 29.89,4.864 29.876,5.102 C29.848,5.354 29.82,5.62 29.792,5.872 C29.778,5.942 29.778,6.012 29.778,6.082 C29.764,6.236 29.764,6.39 29.736,6.544 C29.708,6.684 29.708,6.824 29.75,6.964 C29.764,7.034 29.764,7.104 29.764,7.174 C29.792,7.342 29.806,7.398 29.834,7.58 C30.002,7.566 29.89,7.58 29.988,7.454 C30.198,7.188 30.436,6.95 30.66,6.684 C30.954,6.32 31.248,5.788 31.458,5.368 C31.5,5.326 31.542,5.326 31.584,5.354 C31.626,5.368 31.668,5.396 31.696,5.424 C31.794,5.48 31.878,5.55 31.976,5.578 C32.018,5.578 32.046,5.62 32.074,5.648 C32.074,5.676 32.088,5.704 32.074,5.718 C31.878,6.082 31.598,6.572 31.346,6.908 C31.22,7.076 31.052,7.244 30.912,7.412 C30.828,7.51 30.744,7.608 30.674,7.706 C30.548,7.888 30.366,8.028 30.17,8.14 C30.044,8.21 29.918,8.21 29.778,8.168 C29.75,8.154 29.708,8.14 29.68,8.126 C29.358,7.958 29.022,7.79 28.7,7.636 C28.672,7.608 28.644,7.594 28.588,7.566 Z M33.376,2.834 C33.572,2.862 33.712,2.932 33.838,3.058 C33.936,3.142 34.048,3.226 34.146,3.31 C34.174,3.492 34.174,3.66 34.146,3.828 C34.104,4.08 34.048,4.332 33.978,4.584 C33.894,4.878 33.726,5.116 33.474,5.284 C33.236,5.452 32.998,5.606 32.732,5.704 C32.704,5.704 32.704,5.718 32.676,5.746 C32.508,6.362 32.41,7.006 32.634,7.65 C32.844,7.622 33.026,7.566 33.166,7.398 C33.404,7.118 33.67,6.852 33.908,6.558 C34.174,6.25 34.496,5.76 34.664,5.396 C34.72,5.354 34.748,5.382 34.79,5.41 C34.902,5.508 35.014,5.606 35.14,5.718 C35.154,5.746 35.126,5.774 35.112,5.802 C34.944,6.054 34.65,6.46 34.482,6.712 C34.328,6.922 34.174,7.132 34.006,7.314 C33.88,7.454 33.782,7.594 33.67,7.734 C33.558,7.874 33.446,7.986 33.292,8.07 C33.054,8.196 32.816,8.182 32.606,8.028 C32.396,7.888 32.172,7.734 31.976,7.58 C31.878,7.496 31.794,7.384 31.71,7.272 C31.542,7.034 31.416,6.782 31.346,6.502 C31.318,6.32 31.304,6.124 31.332,5.942 C31.374,5.564 31.472,5.2 31.64,4.864 C31.752,4.64 31.864,4.416 31.99,4.206 C32.144,3.968 32.298,3.744 32.452,3.52 C32.648,3.254 32.886,3.044 33.194,2.904 C33.25,2.876 33.32,2.848 33.376,2.834 Z M32.83,5.2 C33.012,5.116 33.124,5.018 33.236,4.934 C33.39,4.822 33.502,4.654 33.572,4.472 C33.656,4.276 33.698,4.066 33.726,3.856 C33.74,3.73 33.768,3.604 33.726,3.478 C33.558,3.59 33.446,3.73 33.348,3.898 C33.138,4.304 33.026,4.738 32.83,5.2 Z" id="Zhan_ghe" fill="#A6A6A6" fill-rule="nonzero"></path>
    </g>
</svg>